<svg xmlns="http://www.w3.org/2000/svg" viewBox="0 0 64 64" fill="none">
  <title>CloudDrop Blue Portal</title>
  <defs>
    <linearGradient id="portal" x1="6" y1="6" x2="58" y2="58" gradientUnits="userSpaceOnUse">
      <stop stop-color="#3B82F6"/>
      <stop offset="1" stop-color="#8B5CF6"/>
    </linearGradient>
  </defs>
  <path fill="url(#portal)" d="M18 6h11v12h-7a4 4 0 0 0-4 4v20a4 4 0 0 0 4 4h7v12H18C11.373 58 6 52.627 6 46V18C6 11.373 11.373 6 18 6Z"/>
  <path fill="url(#portal)" d="M46 6H35v12h7a4 4 0 0 1 4 4v20a4 4 0 0 1-4 4h-7v12h11c6.627 0 12-5.373 12-12V18c0-6.627-5.373-12-12-12Z"/>
  <path fill="url(#portal)" d="m32 21 11 11-11 11-11-11 11-11Z"/>
</svg>
